<?xml version="1.0" standalone="no"?>
<!DOCTYPE svg PUBLIC "-//W3C//DTD SVG 20010904//EN"
 "http://www.w3.org/TR/2001/REC-SVG-20010904/DTD/svg10.dtd">
<svg version="1.0" xmlns="http://www.w3.org/2000/svg"
 width="500.000000pt" height="500.000000pt" viewBox="0 0 500.000000 500.000000"
 preserveAspectRatio="xMidYMid meet">

<g transform="translate(0.000000,500.000000) scale(0.100000,-0.100000)"
fill="#000000" stroke="none">
<path d="M0 2500 l0 -2500 2500 0 2500 0 0 2500 0 2500 -2500 0 -2500 0 0
-2500z m1678 493 c15 -11 37 -35 50 -54 l24 -34 -47 -3 c-37 -3 -52 1 -69 17
-31 29 -81 27 -111 -4 -20 -19 -25 -34 -25 -73 0 -57 29 -93 77 -94 32 -1 73
17 73 32 0 6 23 10 50 10 l50 0 -20 -40 c-36 -70 -140 -101 -224 -66 -85 36
-123 165 -74 251 46 80 175 110 246 58z m373 4 c111 -59 120 -225 17 -299 -27
-19 -46 -23 -105 -23 -77 0 -106 13 -147 69 -31 41 -30 159 2 204 51 71 151
92 233 49z m285 -97 c26 -66 49 -119 50 -117 1 1 23 55 49 120 l47 117 49 0
49 0 0 -175 0 -175 -40 0 -39 0 -3 98 c-3 108 -1 110 -54 -31 -26 -68 -26 -68
-61 -65 -34 3 -36 5 -68 91 -19 49 -36 91 -39 95 -3 3 -6 -38 -6 -91 l0 -97
-40 0 -40 0 0 175 0 175 49 0 49 0 48 -120z m392 -57 l2 -173 -45 0 -45 0 0
176 0 175 43 -3 42 -3 3 -172z m211 70 l71 -108 0 108 0 108 43 -3 42 -3 3
-172 2 -173 -45 0 -45 0 -70 106 -70 106 0 -106 0 -106 -45 0 -45 0 0 168 c0
93 3 172 7 175 3 4 23 7 43 7 36 0 39 -3 109 -107z m479 78 c18 -12 39 -36 47
-52 l16 -29 -48 0 c-27 0 -57 7 -67 15 -31 23 -83 19 -111 -10 -34 -33 -35
-103 -2 -140 31 -36 84 -43 120 -15 39 31 34 40 -23 40 l-50 0 0 35 0 36 93
-3 92 -3 -1 -48 c-1 -85 -60 -139 -157 -144 -81 -5 -132 22 -164 87 -66 129
24 268 168 258 37 -3 66 -12 87 -27z m-1397 -699 c42 -47 38 -62 -15 -62 -31
0 -46 5 -50 16 -4 10 -15 14 -33 12 -22 -2 -28 -8 -28 -26 0 -20 11 -28 60
-48 79 -32 109 -65 101 -113 -3 -23 -17 -46 -36 -63 -25 -24 -39 -28 -86 -28
-80 0 -134 34 -134 84 0 24 75 21 99 -3 33 -33 91 -2 62 33 -6 7 -38 23 -71
35 -67 25 -90 50 -90 99 0 72 44 104 134 99 52 -3 63 -7 87 -35z m322 24 c130
-55 143 -240 23 -311 -139 -82 -307 41 -266 194 28 104 143 160 243 117z m390
0 c68 -28 115 -118 101 -191 -23 -123 -160 -184 -270 -120 -119 70 -106 254
21 311 39 17 107 18 148 0z m306 -93 l71 -108 0 108 0 108 43 -3 42 -3 3 -172
2 -173 -45 0 -45 0 -70 106 -70 106 0 -106 0 -106 -45 0 -45 0 0 168 c0 93 3
172 7 175 3 4 23 7 43 7 36 0 39 -3 109 -107z"/>
<path d="M1902 2917 c-49 -53 -31 -146 32 -167 37 -12 61 -6 94 23 30 28 31
103 1 141 -28 35 -95 37 -127 3z"/>
<path d="M2222 2243 c-7 -3 -19 -18 -27 -33 -42 -81 15 -169 99 -153 65 13 91
119 41 168 -23 24 -77 33 -113 18z"/>
<path d="M2595 2225 c-50 -49 -24 -155 41 -168 84 -16 141 72 99 152 -16 33
-33 41 -81 41 -24 0 -43 -8 -59 -25z"/>
</g>
</svg>
