<svg xmlns="http://www.w3.org/2000/svg" xmlns:xlink="http://www.w3.org/1999/xlink" width="500" zoomAndPan="magnify" viewBox="0 0 375 374.999991" height="500" preserveAspectRatio="xMidYMid meet" version="1.0"><path fill="#2c3147" d="M 218.105469 127.441406 C 222.304688 127.441406 226.261719 128.246094 229.96875 129.859375 C 233.679688 131.46875 236.929688 133.667969 239.710938 136.449219 C 242.492188 139.234375 244.691406 142.480469 246.300781 146.191406 C 247.914062 149.902344 248.71875 153.855469 248.71875 158.054688 L 248.71875 219.285156 C 248.71875 223.484375 247.914062 227.464844 246.300781 231.226562 C 244.691406 234.984375 242.492188 238.257812 239.710938 241.039062 C 236.929688 243.824219 233.679688 246.019531 229.96875 247.632812 C 226.261719 249.242188 222.304688 250.046875 218.105469 250.046875 L 156.734375 250.046875 C 152.535156 250.046875 148.582031 249.242188 144.871094 247.632812 C 141.160156 246.019531 137.914062 243.824219 135.132812 241.039062 C 132.347656 238.257812 130.152344 234.984375 128.539062 231.226562 C 126.929688 227.464844 126.121094 223.484375 126.121094 219.285156 L 126.121094 158.054688 C 126.121094 153.855469 126.929688 149.902344 128.539062 146.191406 C 130.152344 142.480469 132.347656 139.234375 135.132812 136.449219 C 137.914062 133.667969 141.160156 131.46875 144.871094 129.859375 C 148.582031 128.246094 152.535156 127.441406 156.734375 127.441406 Z M 152.925781 204.785156 L 171.382812 191.601562 L 152.925781 178.417969 Z M 221.914062 210.496094 L 199.503906 194.382812 L 187.492188 203.027344 L 175.335938 194.382812 L 152.925781 210.496094 L 152.925781 219.285156 L 221.914062 219.285156 Z M 221.914062 178.417969 L 203.460938 191.601562 L 221.914062 204.785156 Z M 221.914062 158.054688 L 152.925781 158.054688 L 152.925781 166.992188 L 187.492188 191.601562 L 221.914062 166.992188 Z M 221.914062 158.054688 " fill-opacity="1" fill-rule="nonzero"/></svg>