<svg xmlns="http://www.w3.org/2000/svg" xmlns:xlink="http://www.w3.org/1999/xlink" width="500" zoomAndPan="magnify" viewBox="0 0 375 374.999991" height="500" preserveAspectRatio="xMidYMid meet" version="1.0"><path fill="#2c3147" d="M 154.5 124.5 C 137.964844 124.5 124.5 137.964844 124.5 154.5 L 124.5 220.5 C 124.5 237.035156 137.964844 250.5 154.5 250.5 L 220.5 250.5 C 237.035156 250.5 250.5 237.035156 250.5 220.5 L 250.5 154.5 C 250.5 137.964844 237.035156 124.5 220.5 124.5 Z M 151.5 160.5 L 223.5 160.5 C 224.039062 160.5 224.550781 160.5625 225.027344 160.710938 L 195.539062 190.171875 C 191.097656 194.613281 183.871094 194.613281 179.429688 190.171875 L 149.96875 160.710938 C 150.449219 160.5625 150.960938 160.5 151.5 160.5 Z M 145.710938 164.96875 L 168.269531 187.5 L 145.710938 210.027344 C 145.5625 209.550781 145.5 209.039062 145.5 208.5 L 145.5 166.5 C 145.5 165.960938 145.5625 165.449219 145.710938 164.96875 Z M 229.289062 164.96875 C 229.4375 165.449219 229.5 165.960938 229.5 166.5 L 229.5 208.5 C 229.5 209.039062 229.4375 209.550781 229.289062 210.027344 L 206.699219 187.5 Z M 172.5 191.730469 L 175.171875 194.429688 C 178.5625 197.820312 183.03125 199.5 187.46875 199.5 C 191.941406 199.5 196.378906 197.820312 199.769531 194.429688 L 202.46875 191.730469 L 225.027344 214.289062 C 224.550781 214.4375 224.039062 214.5 223.5 214.5 L 151.5 214.5 C 150.960938 214.5 150.449219 214.4375 149.96875 214.289062 Z M 172.5 191.730469 " fill-opacity="1" fill-rule="nonzero"/></svg>