<svg xmlns="http://www.w3.org/2000/svg" xmlns:xlink="http://www.w3.org/1999/xlink" width="500" zoomAndPan="magnify" viewBox="0 0 375 374.999991" height="500" preserveAspectRatio="xMidYMid meet" version="1.0"><path fill="#2c3147" d="M 187.5 118.75 C 186.386719 118.738281 185.273438 118.753906 184.160156 118.796875 C 183.050781 118.839844 181.9375 118.910156 180.828125 119.007812 C 179.71875 119.109375 178.613281 119.230469 177.511719 119.382812 C 176.410156 119.535156 175.308594 119.714844 174.214844 119.921875 C 173.121094 120.128906 172.035156 120.359375 170.949219 120.621094 C 169.867188 120.878906 168.792969 121.164062 167.722656 121.476562 C 166.65625 121.789062 165.59375 122.128906 164.542969 122.492188 C 163.492188 122.855469 162.449219 123.246094 161.414062 123.660156 C 160.382812 124.078125 159.359375 124.515625 158.347656 124.980469 C 157.335938 125.449219 156.339844 125.9375 155.351562 126.453125 C 154.363281 126.96875 153.390625 127.503906 152.429688 128.066406 C 151.46875 128.628906 150.519531 129.214844 149.589844 129.824219 C 148.65625 130.433594 147.742188 131.066406 146.839844 131.71875 C 145.9375 132.371094 145.054688 133.046875 144.1875 133.746094 C 143.316406 134.441406 142.46875 135.160156 141.632812 135.898438 C 140.800781 136.636719 139.988281 137.398438 139.191406 138.175781 C 138.398438 138.953125 137.621094 139.753906 136.863281 140.570312 C 136.109375 141.386719 135.371094 142.222656 134.65625 143.074219 C 133.941406 143.925781 133.246094 144.796875 132.574219 145.683594 C 131.902344 146.570312 131.25 147.476562 130.621094 148.394531 C 129.996094 149.3125 129.390625 150.246094 128.808594 151.195312 C 128.222656 152.144531 127.664062 153.105469 127.128906 154.082031 C 126.59375 155.058594 126.082031 156.046875 125.597656 157.050781 C 125.109375 158.050781 124.648438 159.0625 124.210938 160.085938 C 123.773438 161.109375 123.363281 162.144531 122.976562 163.1875 C 122.589844 164.234375 122.230469 165.285156 121.894531 166.347656 C 121.558594 167.410156 121.25 168.480469 120.96875 169.554688 C 120.6875 170.632812 120.429688 171.714844 120.203125 172.804688 C 119.972656 173.894531 119.769531 174.988281 119.59375 176.089844 C 119.421875 177.1875 119.273438 178.292969 119.152344 179.398438 C 119.03125 180.503906 118.933594 181.613281 118.867188 182.726562 C 118.800781 183.835938 118.761719 184.949219 118.75 186.0625 C 118.757812 187.832031 118.835938 189.597656 118.984375 191.359375 C 119.132812 193.121094 119.347656 194.875 119.632812 196.621094 C 119.917969 198.363281 120.273438 200.097656 120.695312 201.8125 C 121.117188 203.53125 121.605469 205.230469 122.160156 206.90625 C 122.714844 208.585938 123.335938 210.242188 124.019531 211.871094 C 124.707031 213.5 125.453125 215.101562 126.265625 216.671875 C 127.078125 218.246094 127.949219 219.78125 128.882812 221.285156 C 129.8125 222.789062 130.804688 224.25 131.851562 225.675781 C 132.898438 227.101562 134 228.480469 135.15625 229.820312 C 136.3125 231.160156 137.519531 232.449219 138.777344 233.691406 C 140.035156 234.9375 141.339844 236.128906 142.691406 237.269531 C 144.039062 238.410156 145.433594 239.496094 146.871094 240.527344 C 148.308594 241.554688 149.785156 242.53125 151.296875 243.445312 C 152.808594 244.359375 154.355469 245.214844 155.9375 246.007812 C 157.519531 246.800781 159.128906 247.53125 160.765625 248.195312 C 162.402344 248.863281 164.066406 249.464844 165.75 250 C 169.1875 250.625 170.4375 248.5625 170.4375 246.75 C 170.4375 244.9375 170.4375 240.9375 170.4375 235.3125 C 151.3125 239.375 147.25 226.3125 147.25 226.3125 C 146.613281 224.261719 145.640625 222.386719 144.328125 220.6875 C 143.015625 218.988281 141.449219 217.570312 139.625 216.4375 C 133.375 212.3125 140.125 212.375 140.125 212.375 C 141.207031 212.519531 142.253906 212.78125 143.277344 213.164062 C 144.296875 213.546875 145.261719 214.039062 146.171875 214.640625 C 147.078125 215.238281 147.910156 215.933594 148.664062 216.722656 C 149.414062 217.511719 150.070312 218.375 150.625 219.3125 C 151.105469 220.144531 151.660156 220.925781 152.292969 221.648438 C 152.925781 222.375 153.621094 223.03125 154.382812 223.617188 C 155.140625 224.207031 155.949219 224.71875 156.808594 225.148438 C 157.667969 225.582031 158.5625 225.925781 159.488281 226.183594 C 160.414062 226.441406 161.355469 226.605469 162.316406 226.679688 C 163.273438 226.753906 164.230469 226.734375 165.183594 226.625 C 166.140625 226.511719 167.074219 226.308594 167.988281 226.015625 C 168.90625 225.71875 169.785156 225.339844 170.625 224.875 C 170.800781 223.164062 171.261719 221.535156 172.015625 219.988281 C 172.765625 218.441406 173.761719 217.070312 175 215.875 C 159.75 214.1875 143.75 208.4375 143.75 182.625 C 143.714844 180.957031 143.84375 179.300781 144.128906 177.660156 C 144.414062 176.015625 144.851562 174.414062 145.449219 172.855469 C 146.042969 171.296875 146.78125 169.808594 147.660156 168.394531 C 148.542969 166.976562 149.550781 165.660156 150.6875 164.4375 C 150.171875 163.003906 149.792969 161.539062 149.5625 160.035156 C 149.328125 158.527344 149.242188 157.015625 149.300781 155.496094 C 149.359375 153.972656 149.5625 152.472656 149.910156 150.992188 C 150.261719 149.507812 150.75 148.074219 151.375 146.6875 C 151.375 146.6875 157.1875 144.875 170.125 153.5625 C 175.757812 152.0625 181.484375 151.3125 187.3125 151.3125 C 193.140625 151.3125 198.867188 152.0625 204.5 153.5625 C 217.625 144.875 223.25 146.6875 223.25 146.6875 C 223.875 148.074219 224.363281 149.507812 224.714844 150.992188 C 225.0625 152.472656 225.265625 153.972656 225.324219 155.496094 C 225.382812 157.015625 225.296875 158.527344 225.0625 160.035156 C 224.832031 161.539062 224.453125 163.003906 223.9375 164.4375 C 225.101562 165.636719 226.136719 166.9375 227.046875 168.335938 C 227.957031 169.734375 228.726562 171.207031 229.355469 172.757812 C 229.980469 174.304688 230.453125 175.898438 230.773438 177.535156 C 231.089844 179.175781 231.25 180.832031 231.25 182.5 C 231.25 208.375 215.125 214.0625 200 215.75 C 200.828125 216.554688 201.558594 217.4375 202.191406 218.40625 C 202.820312 219.371094 203.339844 220.394531 203.746094 221.472656 C 204.152344 222.554688 204.433594 223.667969 204.59375 224.808594 C 204.75 225.953125 204.78125 227.101562 204.6875 228.25 L 204.6875 246.6875 C 204.6875 246.6875 205.9375 250.625 209.375 249.9375 C 211.054688 249.398438 212.710938 248.792969 214.34375 248.125 C 215.980469 247.457031 217.582031 246.722656 219.160156 245.929688 C 220.734375 245.132812 222.277344 244.277344 223.785156 243.363281 C 225.292969 242.445312 226.765625 241.472656 228.195312 240.441406 C 229.628906 239.410156 231.019531 238.324219 232.363281 237.183594 C 233.710938 236.042969 235.011719 234.851562 236.265625 233.609375 C 237.519531 232.367188 238.722656 231.078125 239.875 229.742188 C 241.027344 228.402344 242.125 227.023438 243.171875 225.601562 C 244.214844 224.179688 245.199219 222.714844 246.128906 221.214844 C 247.058594 219.714844 247.929688 218.179688 248.738281 216.613281 C 249.546875 215.042969 250.292969 213.445312 250.976562 211.820312 C 251.660156 210.191406 252.28125 208.542969 252.835938 206.867188 C 253.390625 205.191406 253.878906 203.496094 254.300781 201.78125 C 254.71875 200.066406 255.074219 198.339844 255.359375 196.597656 C 255.644531 194.855469 255.863281 193.105469 256.011719 191.347656 C 256.160156 189.589844 256.238281 187.828125 256.25 186.0625 C 256.238281 184.949219 256.199219 183.835938 256.132812 182.726562 C 256.066406 181.613281 255.96875 180.503906 255.847656 179.398438 C 255.726562 178.292969 255.578125 177.1875 255.40625 176.089844 C 255.230469 174.988281 255.027344 173.894531 254.796875 172.804688 C 254.570312 171.714844 254.3125 170.632812 254.03125 169.554688 C 253.75 168.480469 253.441406 167.410156 253.105469 166.347656 C 252.769531 165.285156 252.410156 164.234375 252.023438 163.1875 C 251.636719 162.144531 251.226562 161.109375 250.789062 160.085938 C 250.351562 159.0625 249.890625 158.050781 249.402344 157.050781 C 248.917969 156.046875 248.40625 155.058594 247.871094 154.082031 C 247.335938 153.105469 246.777344 152.144531 246.191406 151.195312 C 245.609375 150.246094 245.003906 149.3125 244.378906 148.394531 C 243.75 147.476562 243.097656 146.570312 242.425781 145.683594 C 241.753906 144.796875 241.058594 143.925781 240.34375 143.074219 C 239.628906 142.222656 238.890625 141.386719 238.136719 140.570312 C 237.378906 139.753906 236.601562 138.953125 235.808594 138.175781 C 235.011719 137.398438 234.199219 136.636719 233.367188 135.898438 C 232.53125 135.160156 231.683594 134.441406 230.8125 133.746094 C 229.945312 133.046875 229.0625 132.371094 228.160156 131.71875 C 227.257812 131.066406 226.34375 130.433594 225.410156 129.824219 C 224.480469 129.214844 223.53125 128.628906 222.570312 128.066406 C 221.609375 127.503906 220.636719 126.96875 219.648438 126.453125 C 218.660156 125.9375 217.664062 125.449219 216.652344 124.980469 C 215.640625 124.515625 214.617188 124.078125 213.585938 123.660156 C 212.550781 123.246094 211.507812 122.855469 210.457031 122.492188 C 209.40625 122.128906 208.34375 121.789062 207.277344 121.476562 C 206.207031 121.164062 205.132812 120.878906 204.050781 120.621094 C 202.964844 120.359375 201.878906 120.128906 200.785156 119.921875 C 199.691406 119.714844 198.589844 119.535156 197.488281 119.382812 C 196.386719 119.230469 195.28125 119.109375 194.171875 119.007812 C 193.0625 118.910156 191.949219 118.839844 190.839844 118.796875 C 189.726562 118.753906 188.613281 118.738281 187.5 118.75 " fill-opacity="1" fill-rule="nonzero"/></svg>