<svg xmlns="http://www.w3.org/2000/svg" xmlns:xlink="http://www.w3.org/1999/xlink" width="500" zoomAndPan="magnify" viewBox="0 0 375 374.999991" height="500" preserveAspectRatio="xMidYMid meet" version="1.0"><defs><clipPath id="5666de0090"><path d="M 112.5 112.5 L 262.5 112.5 L 262.5 259 L 112.5 259 Z M 112.5 112.5 " clip-rule="nonzero"/></clipPath></defs><g clip-path="url(#5666de0090)"><path fill="#2c3147" d="M 187.5 112.5 C 146.085938 112.5 112.5 146.082031 112.5 187.5 C 112.5 220.636719 133.988281 248.75 163.792969 258.667969 C 167.539062 259.363281 168.75 257.039062 168.75 255.0625 L 168.75 241.101562 C 147.886719 245.636719 143.542969 232.25 143.542969 232.25 C 140.132812 223.582031 135.210938 221.273438 135.210938 221.273438 C 128.40625 216.617188 135.730469 216.71875 135.730469 216.71875 C 143.261719 217.242188 147.226562 224.449219 147.226562 224.449219 C 153.914062 235.914062 164.769531 232.601562 169.050781 230.679688 C 169.71875 225.835938 171.664062 222.523438 173.8125 220.65625 C 157.15625 218.75 139.644531 212.320312 139.644531 183.585938 C 139.644531 175.394531 142.574219 168.707031 147.367188 163.457031 C 146.59375 161.5625 144.023438 153.929688 148.101562 143.605469 C 148.101562 143.605469 154.398438 141.59375 168.730469 151.292969 C 174.710938 149.632812 181.125 148.800781 187.5 148.769531 C 193.875 148.800781 200.292969 149.632812 206.289062 151.292969 C 220.605469 141.59375 226.894531 143.605469 226.894531 143.605469 C 230.976562 153.9375 228.40625 161.570312 227.632812 163.457031 C 232.445312 168.707031 235.351562 175.398438 235.351562 183.585938 C 235.351562 212.394531 217.804688 218.738281 201.105469 220.59375 C 203.792969 222.917969 206.25 227.480469 206.25 234.480469 L 206.25 255.0625 C 206.25 257.054688 207.449219 259.398438 211.257812 258.664062 C 241.039062 248.730469 262.5 220.625 262.5 187.5 C 262.5 146.082031 228.917969 112.5 187.5 112.5 Z M 187.5 112.5 " fill-opacity="1" fill-rule="nonzero"/></g></svg>