<svg xmlns="http://www.w3.org/2000/svg" xmlns:xlink="http://www.w3.org/1999/xlink" width="500" zoomAndPan="magnify" viewBox="0 0 375 374.999991" height="500" preserveAspectRatio="xMidYMid meet" version="1.0"><path fill="#2c3147" d="M 234.375 131.25 L 140.625 131.25 C 140.007812 131.25 139.398438 131.308594 138.796875 131.429688 C 138.191406 131.550781 137.605469 131.726562 137.039062 131.964844 C 136.46875 132.199219 135.929688 132.488281 135.417969 132.828125 C 134.90625 133.171875 134.429688 133.5625 133.996094 133.996094 C 133.5625 134.429688 133.171875 134.90625 132.828125 135.417969 C 132.488281 135.929688 132.199219 136.46875 131.964844 137.039062 C 131.726562 137.605469 131.550781 138.191406 131.429688 138.796875 C 131.308594 139.398438 131.25 140.007812 131.25 140.625 L 131.25 234.375 C 131.25 234.992188 131.308594 235.601562 131.429688 236.203125 C 131.550781 236.808594 131.726562 237.394531 131.964844 237.960938 C 132.199219 238.53125 132.488281 239.070312 132.828125 239.582031 C 133.171875 240.09375 133.5625 240.570312 133.996094 241.003906 C 134.429688 241.4375 134.90625 241.828125 135.417969 242.171875 C 135.929688 242.511719 136.46875 242.800781 137.039062 243.035156 C 137.605469 243.273438 138.191406 243.449219 138.796875 243.570312 C 139.398438 243.691406 140.007812 243.75 140.625 243.75 L 234.375 243.75 C 234.992188 243.75 235.601562 243.691406 236.203125 243.570312 C 236.808594 243.449219 237.394531 243.273438 237.960938 243.035156 C 238.53125 242.800781 239.070312 242.511719 239.582031 242.171875 C 240.09375 241.828125 240.570312 241.4375 241.003906 241.003906 C 241.4375 240.570312 241.828125 240.09375 242.171875 239.582031 C 242.511719 239.070312 242.800781 238.53125 243.035156 237.960938 C 243.273438 237.394531 243.449219 236.808594 243.570312 236.203125 C 243.691406 235.601562 243.75 234.992188 243.75 234.375 L 243.75 140.625 C 243.75 140.007812 243.691406 139.398438 243.570312 138.796875 C 243.449219 138.191406 243.273438 137.605469 243.035156 137.039062 C 242.800781 136.46875 242.511719 135.929688 242.171875 135.417969 C 241.828125 134.90625 241.4375 134.429688 241.003906 133.996094 C 240.570312 133.5625 240.09375 133.171875 239.582031 132.828125 C 239.070312 132.488281 238.53125 132.199219 237.960938 131.964844 C 237.394531 131.726562 236.808594 131.550781 236.203125 131.429688 C 235.601562 131.308594 234.992188 131.25 234.375 131.25 Z M 187.5 150 C 187.960938 150 188.417969 150.046875 188.871094 150.136719 C 189.324219 150.226562 189.765625 150.359375 190.191406 150.535156 C 190.617188 150.710938 191.023438 150.929688 191.40625 151.183594 C 191.789062 151.441406 192.144531 151.734375 192.472656 152.058594 C 192.796875 152.386719 193.089844 152.742188 193.347656 153.125 C 193.601562 153.507812 193.820312 153.914062 193.996094 154.339844 C 194.171875 154.765625 194.304688 155.207031 194.394531 155.660156 C 194.484375 156.113281 194.53125 156.570312 194.53125 157.03125 C 194.53125 157.492188 194.484375 157.949219 194.394531 158.402344 C 194.304688 158.855469 194.171875 159.296875 193.996094 159.722656 C 193.820312 160.148438 193.601562 160.554688 193.347656 160.9375 C 193.089844 161.320312 192.796875 161.675781 192.472656 162.003906 C 192.144531 162.328125 191.789062 162.621094 191.40625 162.878906 C 191.023438 163.132812 190.617188 163.351562 190.191406 163.527344 C 189.765625 163.703125 189.324219 163.835938 188.871094 163.925781 C 188.417969 164.015625 187.960938 164.0625 187.5 164.0625 C 187.039062 164.0625 186.582031 164.015625 186.128906 163.925781 C 185.675781 163.835938 185.234375 163.703125 184.808594 163.527344 C 184.382812 163.351562 183.976562 163.132812 183.59375 162.878906 C 183.210938 162.621094 182.855469 162.328125 182.527344 162.003906 C 182.203125 161.675781 181.910156 161.320312 181.652344 160.9375 C 181.398438 160.554688 181.179688 160.148438 181.003906 159.722656 C 180.828125 159.296875 180.695312 158.855469 180.605469 158.402344 C 180.515625 157.949219 180.46875 157.492188 180.46875 157.03125 C 180.46875 156.570312 180.515625 156.113281 180.605469 155.660156 C 180.695312 155.207031 180.828125 154.765625 181.003906 154.339844 C 181.179688 153.914062 181.398438 153.507812 181.652344 153.125 C 181.910156 152.742188 182.203125 152.386719 182.527344 152.058594 C 182.855469 151.734375 183.210938 151.441406 183.59375 151.183594 C 183.976562 150.929688 184.382812 150.710938 184.808594 150.535156 C 185.234375 150.359375 185.675781 150.226562 186.128906 150.136719 C 186.582031 150.046875 187.039062 150 187.5 150 Z M 206.25 225.585938 L 168.75 225.585938 L 168.75 215.039062 L 182.226562 215.039062 L 182.226562 188.085938 L 173.4375 188.085938 L 173.4375 177.539062 L 192.773438 177.539062 L 192.773438 215.039062 L 206.25 215.039062 Z M 206.25 225.585938 " fill-opacity="1" fill-rule="nonzero"/></svg>