<svg xmlns="http://www.w3.org/2000/svg" xmlns:xlink="http://www.w3.org/1999/xlink" width="500" zoomAndPan="magnify" viewBox="0 0 375 374.999991" height="500" preserveAspectRatio="xMidYMid meet" version="1.0"><path fill="#2c3147" d="M 160.4375 124.996094 L 214.625 124.996094 C 235.8125 124.996094 250 139.871094 250 161.996094 L 250 213.0625 C 250 235.125 235.8125 249.996094 214.625 249.996094 L 160.4375 249.996094 C 139.25 249.996094 125 235.125 125 213.0625 L 125 161.996094 C 125 139.871094 139.25 124.996094 160.4375 124.996094 Z M 187.4375 169.125 C 184.5 169.125 182.0625 166.683594 182.0625 163.6875 C 182.0625 160.625 184.5 158.1875 187.5625 158.1875 C 190.5625 158.1875 193 160.625 193 163.6875 C 193 166.683594 190.5625 169.125 187.4375 169.125 Z M 192.9375 211.125 C 192.9375 214.125 190.5 216.5625 187.4375 216.5625 C 184.4375 216.5625 182 214.125 182 211.125 L 182 183.5 C 182 180.496094 184.4375 178 187.4375 178 C 190.5 178 192.9375 180.496094 192.9375 183.5 Z M 192.9375 211.125 " fill-opacity="1" fill-rule="evenodd"/></svg>