<svg xmlns="http://www.w3.org/2000/svg" xmlns:xlink="http://www.w3.org/1999/xlink" width="500" zoomAndPan="magnify" viewBox="0 0 375 374.999991" height="500" preserveAspectRatio="xMidYMid meet" version="1.0"><defs><clipPath id="a7f9b81bc6"><path d="M 112.5 112.5 L 262.5 112.5 L 262.5 262.5 L 112.5 262.5 Z M 112.5 112.5 " clip-rule="nonzero"/></clipPath></defs><g clip-path="url(#a7f9b81bc6)"><path fill="#2c3147" d="M 205.179688 151.886719 C 200.570312 151.675781 199.179688 151.636719 187.5 151.636719 C 175.820312 151.636719 174.4375 151.679688 169.824219 151.886719 C 157.957031 152.429688 152.429688 158.050781 151.886719 169.824219 C 151.679688 174.4375 151.632812 175.820312 151.632812 187.5 C 151.632812 199.179688 151.679688 200.5625 151.886719 205.179688 C 152.429688 216.925781 157.929688 222.574219 169.824219 223.117188 C 174.429688 223.324219 175.820312 223.375 187.5 223.375 C 199.1875 223.375 200.570312 223.332031 205.179688 223.117188 C 217.050781 222.582031 222.570312 216.945312 223.117188 205.179688 C 223.324219 200.570312 223.367188 199.179688 223.367188 187.5 C 223.367188 175.820312 223.324219 174.4375 223.117188 169.824219 C 222.570312 158.054688 217.039062 152.429688 205.179688 151.886719 Z M 187.5 209.96875 C 175.09375 209.96875 165.03125 199.914062 165.03125 187.5 C 165.03125 175.09375 175.09375 165.039062 187.5 165.039062 C 199.90625 165.039062 209.96875 175.09375 209.96875 187.5 C 209.96875 199.90625 199.90625 209.96875 187.5 209.96875 Z M 210.855469 169.398438 C 207.957031 169.398438 205.605469 167.050781 205.605469 164.148438 C 205.605469 161.25 207.957031 158.898438 210.855469 158.898438 C 213.757812 158.898438 216.105469 161.25 216.105469 164.148438 C 216.105469 167.042969 213.757812 169.398438 210.855469 169.398438 Z M 202.082031 187.5 C 202.082031 195.554688 195.550781 202.082031 187.5 202.082031 C 179.449219 202.082031 172.917969 195.554688 172.917969 187.5 C 172.917969 179.445312 179.449219 172.917969 187.5 172.917969 C 195.550781 172.917969 202.082031 179.445312 202.082031 187.5 Z M 187.5 112.5 C 146.082031 112.5 112.5 146.082031 112.5 187.5 C 112.5 228.917969 146.082031 262.5 187.5 262.5 C 228.917969 262.5 262.5 228.917969 262.5 187.5 C 262.5 146.082031 228.917969 112.5 187.5 112.5 Z M 230.988281 205.539062 C 230.269531 221.445312 221.414062 230.257812 205.542969 230.988281 C 200.875 231.199219 199.382812 231.25 187.5 231.25 C 175.617188 231.25 174.132812 231.199219 169.460938 230.988281 C 153.5625 230.257812 144.742188 221.429688 144.011719 205.539062 C 143.800781 200.875 143.75 199.382812 143.75 187.5 C 143.75 175.617188 143.800781 174.132812 144.011719 169.460938 C 144.742188 153.5625 153.570312 144.742188 169.460938 144.019531 C 174.132812 143.800781 175.617188 143.75 187.5 143.75 C 199.382812 143.75 200.875 143.800781 205.542969 144.019531 C 221.449219 144.75 230.273438 153.59375 230.988281 169.460938 C 231.199219 174.132812 231.25 175.617188 231.25 187.5 C 231.25 199.382812 231.199219 200.875 230.988281 205.539062 Z M 230.988281 205.539062 " fill-opacity="1" fill-rule="nonzero"/></g></svg>