<svg xmlns="http://www.w3.org/2000/svg" xmlns:xlink="http://www.w3.org/1999/xlink" width="500" zoomAndPan="magnify" viewBox="0 0 375 374.999991" height="500" preserveAspectRatio="xMidYMid meet" version="1.0"><path fill="#2c3147" d="M 243.417969 164.40625 C 243.351562 159.675781 242.476562 154.980469 240.800781 150.554688 C 237.867188 143 231.898438 137.023438 224.34375 134.101562 C 219.976562 132.457031 215.355469 131.574219 210.679688 131.476562 C 204.667969 131.207031 202.761719 131.132812 187.5 131.132812 C 172.238281 131.132812 170.28125 131.132812 164.3125 131.476562 C 159.644531 131.574219 155.023438 132.457031 150.65625 134.101562 C 143.101562 137.023438 137.125 143 134.199219 150.554688 C 132.554688 154.925781 131.667969 159.542969 131.582031 164.210938 C 131.3125 170.230469 131.230469 172.136719 131.230469 187.398438 C 131.230469 202.664062 131.230469 204.613281 131.582031 210.585938 C 131.675781 215.261719 132.554688 219.875 134.199219 224.257812 C 137.132812 231.804688 143.101562 237.78125 150.664062 240.707031 C 155.011719 242.40625 159.632812 243.367188 164.320312 243.519531 C 170.335938 243.789062 172.242188 243.867188 187.507812 243.867188 C 202.769531 243.867188 204.726562 243.867188 210.695312 243.519531 C 215.363281 243.425781 219.980469 242.542969 224.355469 240.898438 C 231.914062 237.96875 237.882812 231.992188 240.8125 224.445312 C 242.457031 220.070312 243.335938 215.457031 243.429688 210.773438 C 243.699219 204.761719 243.78125 202.855469 243.78125 187.585938 C 243.769531 172.324219 243.769531 170.386719 243.417969 164.40625 Z M 187.460938 216.261719 C 171.5 216.261719 158.570312 203.332031 158.570312 187.367188 C 158.570312 171.40625 171.5 158.476562 187.460938 158.476562 C 203.414062 158.476562 216.355469 171.40625 216.355469 187.367188 C 216.355469 203.332031 203.414062 216.261719 187.460938 216.261719 Z M 217.507812 164.144531 C 213.773438 164.144531 210.769531 161.132812 210.769531 157.40625 C 210.769531 153.679688 213.773438 150.667969 217.507812 150.667969 C 221.226562 150.667969 224.238281 153.679688 224.238281 157.40625 C 224.238281 161.132812 221.226562 164.144531 217.507812 164.144531 Z M 217.507812 164.144531 " fill-opacity="1" fill-rule="nonzero"/><path fill="#2c3147" d="M 206.230469 187.367188 C 206.230469 187.984375 206.199219 188.597656 206.140625 189.207031 C 206.082031 189.820312 205.992188 190.425781 205.871094 191.03125 C 205.75 191.632812 205.601562 192.230469 205.421875 192.816406 C 205.246094 193.40625 205.039062 193.984375 204.800781 194.550781 C 204.566406 195.117188 204.304688 195.675781 204.015625 196.214844 C 203.726562 196.757812 203.410156 197.285156 203.066406 197.796875 C 202.726562 198.308594 202.359375 198.800781 201.972656 199.277344 C 201.582031 199.75 201.167969 200.207031 200.734375 200.640625 C 200.300781 201.074219 199.84375 201.488281 199.371094 201.878906 C 198.894531 202.265625 198.402344 202.632812 197.890625 202.972656 C 197.378906 203.316406 196.851562 203.632812 196.308594 203.921875 C 195.769531 204.210938 195.210938 204.472656 194.644531 204.707031 C 194.078125 204.945312 193.5 205.152344 192.910156 205.328125 C 192.324219 205.507812 191.726562 205.65625 191.125 205.777344 C 190.519531 205.898438 189.914062 205.988281 189.300781 206.046875 C 188.691406 206.105469 188.078125 206.136719 187.460938 206.136719 C 186.847656 206.136719 186.234375 206.105469 185.621094 206.046875 C 185.011719 205.988281 184.402344 205.898438 183.800781 205.777344 C 183.199219 205.65625 182.601562 205.507812 182.015625 205.328125 C 181.425781 205.152344 180.847656 204.945312 180.28125 204.707031 C 179.710938 204.472656 179.15625 204.210938 178.613281 203.921875 C 178.074219 203.632812 177.546875 203.316406 177.035156 202.972656 C 176.523438 202.632812 176.03125 202.265625 175.554688 201.878906 C 175.082031 201.488281 174.625 201.074219 174.191406 200.640625 C 173.757812 200.207031 173.34375 199.75 172.953125 199.277344 C 172.5625 198.800781 172.199219 198.308594 171.855469 197.796875 C 171.515625 197.285156 171.199219 196.757812 170.910156 196.214844 C 170.621094 195.675781 170.359375 195.117188 170.121094 194.550781 C 169.886719 193.984375 169.679688 193.40625 169.5 192.816406 C 169.324219 192.230469 169.175781 191.632812 169.054688 191.03125 C 168.933594 190.425781 168.84375 189.820312 168.785156 189.207031 C 168.722656 188.597656 168.695312 187.984375 168.695312 187.367188 C 168.695312 186.753906 168.722656 186.140625 168.785156 185.527344 C 168.84375 184.917969 168.933594 184.308594 169.054688 183.707031 C 169.175781 183.105469 169.324219 182.507812 169.5 181.921875 C 169.679688 181.332031 169.886719 180.753906 170.121094 180.1875 C 170.359375 179.617188 170.621094 179.0625 170.910156 178.519531 C 171.199219 177.980469 171.515625 177.453125 171.855469 176.941406 C 172.199219 176.429688 172.5625 175.9375 172.953125 175.460938 C 173.34375 174.988281 173.757812 174.53125 174.191406 174.097656 C 174.625 173.664062 175.082031 173.25 175.554688 172.859375 C 176.03125 172.46875 176.523438 172.105469 177.035156 171.761719 C 177.546875 171.421875 178.074219 171.105469 178.613281 170.816406 C 179.15625 170.527344 179.710938 170.265625 180.28125 170.027344 C 180.847656 169.792969 181.425781 169.585938 182.015625 169.40625 C 182.601562 169.230469 183.199219 169.082031 183.800781 168.960938 C 184.402344 168.839844 185.011719 168.75 185.621094 168.691406 C 186.234375 168.628906 186.847656 168.601562 187.460938 168.601562 C 188.078125 168.601562 188.691406 168.628906 189.300781 168.691406 C 189.914062 168.75 190.519531 168.839844 191.125 168.960938 C 191.726562 169.082031 192.324219 169.230469 192.910156 169.40625 C 193.5 169.585938 194.078125 169.792969 194.644531 170.027344 C 195.210938 170.265625 195.769531 170.527344 196.308594 170.816406 C 196.851562 171.105469 197.378906 171.421875 197.890625 171.761719 C 198.402344 172.105469 198.894531 172.46875 199.371094 172.859375 C 199.84375 173.25 200.300781 173.664062 200.734375 174.097656 C 201.167969 174.53125 201.582031 174.988281 201.972656 175.460938 C 202.359375 175.9375 202.726562 176.429688 203.066406 176.941406 C 203.410156 177.453125 203.726562 177.980469 204.015625 178.519531 C 204.304688 179.0625 204.566406 179.617188 204.800781 180.1875 C 205.039062 180.753906 205.246094 181.332031 205.421875 181.921875 C 205.601562 182.507812 205.75 183.105469 205.871094 183.707031 C 205.992188 184.308594 206.082031 184.917969 206.140625 185.527344 C 206.199219 186.140625 206.230469 186.753906 206.230469 187.367188 Z M 206.230469 187.367188 " fill-opacity="1" fill-rule="nonzero"/></svg>