<svg xmlns="http://www.w3.org/2000/svg" xmlns:xlink="http://www.w3.org/1999/xlink" width="500" zoomAndPan="magnify" viewBox="0 0 375 374.999991" height="500" preserveAspectRatio="xMidYMid meet" version="1.0"><defs><clipPath id="66e69c9f1b"><path d="M 112.5 112.5 L 262.5 112.5 L 262.5 262.5 L 112.5 262.5 Z M 112.5 112.5 " clip-rule="nonzero"/></clipPath></defs><g clip-path="url(#66e69c9f1b)"><path fill="#2c3147" d="M 231.25 112.5 L 143.75 112.5 C 126.492188 112.5 112.5 126.492188 112.5 143.75 L 112.5 231.25 C 112.5 248.507812 126.492188 262.5 143.75 262.5 L 231.25 262.5 C 248.511719 262.5 262.5 248.507812 262.5 231.25 L 262.5 143.75 C 262.5 126.492188 248.511719 112.5 231.25 112.5 Z M 162.5 231.25 L 143.75 231.25 L 143.75 162.5 L 162.5 162.5 Z M 153.125 154.574219 C 147.085938 154.574219 142.1875 149.636719 142.1875 143.550781 C 142.1875 137.460938 147.085938 132.523438 153.125 132.523438 C 159.164062 132.523438 164.0625 137.460938 164.0625 143.550781 C 164.0625 149.636719 159.167969 154.574219 153.125 154.574219 Z M 237.5 231.25 L 218.75 231.25 L 218.75 196.226562 C 218.75 175.175781 193.75 176.769531 193.75 196.226562 L 193.75 231.25 L 175 231.25 L 175 162.5 L 193.75 162.5 L 193.75 173.53125 C 202.476562 157.367188 237.5 156.175781 237.5 189.007812 Z M 237.5 231.25 " fill-opacity="1" fill-rule="nonzero"/></g></svg>