<svg xmlns="http://www.w3.org/2000/svg" xmlns:xlink="http://www.w3.org/1999/xlink" width="500" zoomAndPan="magnify" viewBox="0 0 375 374.999991" height="500" preserveAspectRatio="xMidYMid meet" version="1.0"><path fill="#2c3147" d="M 218.105469 127.441406 C 222.304688 127.441406 226.261719 128.246094 229.96875 129.859375 C 233.679688 131.46875 236.929688 133.667969 239.710938 136.449219 C 242.492188 139.234375 244.691406 142.480469 246.300781 146.191406 C 247.914062 149.902344 248.71875 153.855469 248.71875 158.054688 L 248.71875 219.285156 C 248.71875 223.484375 247.914062 227.464844 246.300781 231.226562 C 244.691406 234.984375 242.492188 238.257812 239.710938 241.039062 C 236.929688 243.824219 233.679688 246.019531 229.96875 247.632812 C 226.261719 249.242188 222.304688 250.046875 218.105469 250.046875 L 156.734375 250.046875 C 152.535156 250.046875 148.582031 249.242188 144.871094 247.632812 C 141.160156 246.019531 137.914062 243.824219 135.132812 241.039062 C 132.347656 238.257812 130.152344 234.984375 128.539062 231.226562 C 126.929688 227.464844 126.121094 223.484375 126.121094 219.285156 L 126.121094 158.054688 C 126.121094 153.855469 126.929688 149.902344 128.539062 146.191406 C 130.152344 142.480469 132.347656 139.234375 135.132812 136.449219 C 137.914062 133.667969 141.160156 131.46875 144.871094 129.859375 C 148.582031 128.246094 152.535156 127.441406 156.734375 127.441406 Z M 168.304688 173.4375 L 152.925781 173.4375 L 152.925781 223.242188 L 168.304688 223.242188 Z M 160.691406 169.480469 C 162.742188 169.480469 164.523438 168.75 166.035156 167.285156 C 167.550781 165.820312 168.304688 164.011719 168.304688 161.863281 C 168.304688 159.714844 167.550781 157.910156 166.035156 156.445312 C 164.523438 154.980469 162.742188 154.246094 160.691406 154.246094 C 158.542969 154.246094 156.710938 154.980469 155.199219 156.445312 C 153.683594 157.910156 152.925781 159.714844 152.925781 161.863281 C 152.925781 164.011719 153.683594 165.820312 155.199219 167.285156 C 156.710938 168.75 158.542969 169.480469 160.691406 169.480469 Z M 221.914062 194.382812 C 221.914062 190.867188 220.9375 187.425781 218.984375 184.058594 C 217.03125 180.6875 214.492188 178.125 211.367188 176.367188 C 208.535156 174.804688 205.242188 173.972656 201.480469 173.875 C 197.722656 173.777344 194.328125 174.414062 191.300781 175.78125 L 191.300781 173.4375 L 175.921875 173.4375 L 175.921875 223.242188 L 191.300781 223.242188 L 191.300781 192.773438 L 197.601562 189.695312 C 198.382812 189.304688 199.457031 189.109375 200.824219 189.109375 C 202.191406 189.109375 203.214844 189.355469 203.898438 189.84375 C 204.484375 190.136719 205.070312 190.769531 205.65625 191.746094 C 206.242188 192.722656 206.535156 193.601562 206.535156 194.382812 L 206.535156 223.242188 L 221.914062 223.242188 Z M 221.914062 194.382812 " fill-opacity="1" fill-rule="nonzero"/></svg>